<svg xmlns="http://www.w3.org/2000/svg" viewBox="0 0 406.44 274.04"><defs><style>.cls-1{opacity:0.31;}.cls-2{fill:#f0f0f0;}.cls-3{fill:#e6e6e6;}.cls-4{fill:none;}.cls-5{fill:#00aed6;}.cls-6{fill:#00b7d8;}.cls-7{fill:#fff;}.cls-8{fill:#4b3c51;}.cls-9{fill:#04a2bc;}.cls-10{fill:#3e3244;}.cls-11{fill:#e8a17e;}.cls-12{fill:#d88d6c;}.cls-13{fill:#161119;}.cls-14{fill:#f27b53;opacity:0.45;}.cls-15,.cls-21,.cls-23{fill:#26476d;}.cls-15{opacity:0.07;}.cls-16{fill:#ffce45;}.cls-17,.cls-20{fill:#345d95;}.cls-17{opacity:0.11;}.cls-18{opacity:0.38;}.cls-19{fill:#ffa748;}.cls-22{fill:#c5e1f9;}.cls-23{opacity:0.27;}</style></defs><title>contact-us-3</title><g id="Layer_2" data-name="Layer 2"><g id="OBJECTS"><g class="cls-1"><path class="cls-2" d="M66.76,274C43.67,273,21,263.18,9.92,246.33-.33,230.75-2.23,206.62,2.35,189.28c3.85-14.56,14.85-27.16,27.39-37.82,25.34-21.56,58-37.19,79.41-61.49C121.05,76.46,129,60.8,140.42,47c22.26-26.79,59.11-45.8,98.29-47S318,17.18,334.3,46.79c14,25.46,10.35,56.33,27.6,80.39,7.92,11.06,19.74,19.84,28.44,30.49,15.5,18.94,20.18,43.71,12.42,65.69S375,264.08,349.6,273.09"/></g><g class="cls-1"><path class="cls-3" d="M320.59,271.93c16.11-.7,31.92-7.16,39.65-18.26,7.14-10.27,8.47-26.18,5.27-37.6-2.68-9.6-10.35-17.9-19.1-24.93C328.74,176.94,306,166.63,291,150.61c-8.3-8.9-18.24-29.46-26.22-38.54-15.52-17.66-33.95-29.26-61.13-32.15-35.05-3.73-58.32,22.72-69.68,42.24-9.77,16.78-7.22,37.12-19.25,53-5.53,7.29-13.77,13.08-19.84,20.09-10.8,12.49-14.07,28.81-8.66,43.3s19.39,26.84,37.08,32.78"/></g><path class="cls-4" d="M77.11,258.22l-.5,3.94a4.46,4.46,0,0,0,3.15-1.25,1.19,1.19,0,0,0,.22-1.22C79.66,258.77,78.37,258.37,77.11,258.22Z"/><path class="cls-5" d="M98.16,251.53c-1.19-3.41-4.74-4.72-7.9-5.2-6.93,10.84-15.59,13-20.33,13.28l1.38,8.13H86.92l.84-6.49c4-.07,7.46-1.42,9.34-3.74A6,6,0,0,0,98.16,251.53Zm-4.06,3.55c-.93,1.15-3,2.15-5.84,2.3l.94-7.29c2.32.28,4.72,1,5.32,2.72A2.21,2.21,0,0,1,94.1,255.08Z"/><path class="cls-6" d="M90.26,246.33l-.57-.09,1-7.32a.73.73,0,0,0-.72-.82H67.23a.8.8,0,0,0-.79,1l3.49,20.56C74.67,259.33,83.33,257.17,90.26,246.33Z"/><path class="cls-7" d="M79.84,235.06c-2.25-1.2-4.4-5.52-5.29-7.52a7.49,7.49,0,0,1-.16-6.34c.83-1.65,2.42-2.79,3.41-4.35a7,7,0,0,0,.87-5.49c-.68-2.6-2.81-4.67-3.3-7.31-.57-3.1,1.23-6.08,2-9.13a14.51,14.51,0,0,0-.41-8.55c2.2,1.3,3.52,3.66,4.74,5.92,1.1,2.05,2.25,4.25,2.09,6.59a15.85,15.85,0,0,1-1.23,4.21c-.93,2.49-1.57,5.23-.91,7.8,1,3.89,4.84,6.94,4.69,11a8.45,8.45,0,0,1-3.49,6,14.81,14.81,0,0,0-3.46,3.08c-.85,1.3-.88,3.33.43,4.15"/><path class="cls-8" d="M218.53,117.29a52.72,52.72,0,0,0-3.86,12.4c-.67,4.16-.9,8.4-1.94,12.49a53.77,53.77,0,0,1-4.08,10.39,2.2,2.2,0,0,0-.3,1,2.16,2.16,0,0,0,1.11,1.56,30.05,30.05,0,0,0,28.72,3.42"/><ellipse class="cls-6" cx="216.37" cy="135.39" rx="8.02" ry="9.97"/><ellipse class="cls-9" cx="220.14" cy="136.8" rx="8.02" ry="9.97"/><path class="cls-10" d="M238.18,158.54l-16.73-35.1c-1.85,6.16-3.7,12.33-5.45,18.53a34.62,34.62,0,0,0-1.35,6.28,17.74,17.74,0,0,0,.38,5.58,10.53,10.53,0,0,0,2.36,4.87,9.19,9.19,0,0,0,.74.66A30,30,0,0,0,238.18,158.54Z"/><path class="cls-11" d="M234.67,157.33c.75,4.26,1.38,9.1-1.27,12.53a4.67,4.67,0,0,0-1.37,2.43c-.06,1.24,1.13,2.16,2.24,2.71a17.78,17.78,0,0,0,14,.73,2.26,2.26,0,0,0,1-.62c.57-.7.21-1.73-.14-2.56a30.81,30.81,0,0,1,.25-24.11"/><path class="cls-12" d="M234.29,156.09a25.57,25.57,0,0,1,.9,8.94.34.34,0,0,0,.05.3c.1.11.26.07.4,0a12.84,12.84,0,0,0,2.84-1.31,12.7,12.7,0,0,0,3.91-4.4,13.08,13.08,0,0,0,1.35-6.78"/><path class="cls-11" d="M224.43,117.86c-3,3.4-3.74,8.23-4.14,12.76a51.87,51.87,0,0,0,0,12,21.88,21.88,0,0,0,4.53,11A17,17,0,0,0,228.6,157a9.6,9.6,0,0,0,3.17,1.41c2.17.47,4.41-.16,6.51-.84,4.8-1.55,9.75-3.66,12.71-7.74,3.86-5.33,6.42-19.33,7.42-25.83"/><path class="cls-12" d="M218.38,122a32.53,32.53,0,0,0,15.92,7.45,56.13,56.13,0,0,0,10.29.51,17.62,17.62,0,0,0,3.84-.38,6.94,6.94,0,0,0,4.33-2.92,4.72,4.72,0,0,0,.07-5.06"/><path class="cls-8" d="M257.13,104.25c-8.56-4.14-20.95-3.28-27.18.28s-8.81,6.76-12.06,14.18c-.19.45-1.32,3.18-1.15,3.63a1.31,1.31,0,0,0,.84.87c7.69,2.94,14.45,3.47,22.68,3.88a28.73,28.73,0,0,0,8.18-.51c3.77,12.63,1.81,21.69-4.47,33.28,4.08,1.72,20,2.72,27.54-3.14a18,18,0,0,0,4.92-5.47c3-5.49,1.72-12.26.08-18.3a60.39,60.39,0,0,0-4.8-13.09c-3.4-6.3-8-12.78-14.58-15.61"/><path class="cls-7" d="M227.15,145.7c.63,1.93,1.34,3.71,3,4.8a6.13,6.13,0,0,0,5.78.11c1.82-.86,3.55-3,4.82-4.55a52.85,52.85,0,0,1-13.65-.36"/><path class="cls-10" d="M262.64,155.85a3.84,3.84,0,0,1-1.24-1.53,5.81,5.81,0,0,1,.31-3.77,20.24,20.24,0,0,0,1-6.44,9.5,9.5,0,0,0-2.22-6c-2.12-2.35-5.44-3.09-8.54-3.72l-2-.39c1.16,9.06-1.05,16.68-6,25.88,4.09,1.72,20,2.72,27.55-3.14.28-.22.54-.45.81-.68a11.25,11.25,0,0,1-1.43.72A8.54,8.54,0,0,1,262.64,155.85Z"/><path class="cls-13" d="M234.76,134.31a3.82,3.82,0,0,0-3.79,0l-.41-.6a4.48,4.48,0,0,1,4.54,0Z"/><polygon class="cls-13" points="250.06 134.1 248.15 134.07 248.15 133.34 249.97 133.34 250.06 134.1"/><polyline class="cls-12" points="232.29 135.63 229.98 142.72 233.62 143.01"/><path class="cls-10" d="M239.52,130c.15-.09.31-.16.46-.24l.29-.13-.11,0c.24-.1.48-.19.73-.27a7,7,0,0,1,.93-.24c.2,0,.4-.08.6-.1h-.11a8,8,0,0,1,1.76-.05l.55.05h-.12a8.59,8.59,0,0,1,1.75.42l.52.2-.1,0a10,10,0,0,1,1.81,1,.44.44,0,0,0,.34,0,.47.47,0,0,0,.26-.2.45.45,0,0,0,0-.34.46.46,0,0,0-.2-.26,10.15,10.15,0,0,0-2.93-1.4,9,9,0,0,0-2.63-.36,9.27,9.27,0,0,0-2.16.28,9.12,9.12,0,0,0-1.52.53,6.54,6.54,0,0,0-.59.3h0a.43.43,0,0,0-.2.26.45.45,0,0,0,0,.34.47.47,0,0,0,.26.2.45.45,0,0,0,.34-.05Z"/><path class="cls-10" d="M227.72,130a3.19,3.19,0,0,0-.4-.33l-.26-.17.09.06c-.21-.14-.43-.27-.66-.4a8.59,8.59,0,0,0-.87-.4,5.71,5.71,0,0,0-.58-.21l.11,0a9.28,9.28,0,0,0-1.72-.38l-.55,0H223a8.34,8.34,0,0,0-1.8.1,5.3,5.3,0,0,0-.55.1l.12,0c-.68.15.22.61-1,.29a2.67,2.67,0,0,1,1.89-1.3,9.06,9.06,0,0,1,2.65.12,9.21,9.21,0,0,1,2.08.68,9.06,9.06,0,0,1,1.39.79,4.39,4.39,0,0,1,.53.41h0a.48.48,0,0,1,.15.3.43.43,0,0,1-.11.32.41.41,0,0,1-.29.15.44.44,0,0,1-.33-.1Z"/><path class="cls-10" d="M239.8,134.86a3.81,3.81,0,0,1,1.23-1,3.25,3.25,0,0,1,3.6.66c.24.2.6-.15.35-.35a3.8,3.8,0,0,0-3.95-.86,4,4,0,0,0-1.66,1.34c-.19.27.24.52.43.25Z"/><path class="cls-10" d="M221.63,134.21a3.85,3.85,0,0,1,1.24-1,3.2,3.2,0,0,1,3.59.66c.25.2.61-.15.36-.36a3.79,3.79,0,0,0-3.95-.85A4,4,0,0,0,221.2,134c-.18.26.25.51.43.25Z"/><circle class="cls-14" cx="245.33" cy="141.34" r="3.13"/><circle class="cls-14" cx="222.78" cy="140.12" r="2.64"/><path class="cls-13" d="M224.1,141.17a6.93,6.93,0,1,1,6.92-6.92A6.94,6.94,0,0,1,224.1,141.17Zm0-13a6.13,6.13,0,1,0,6.12,6.13A6.14,6.14,0,0,0,224.1,128.12Z"/><path class="cls-13" d="M241.52,141.17a6.93,6.93,0,1,1,6.92-6.92A6.94,6.94,0,0,1,241.52,141.17Zm0-13a6.13,6.13,0,1,0,6.12,6.13A6.14,6.14,0,0,0,241.52,128.12Z"/><ellipse class="cls-13" cx="234.37" cy="154.45" rx="2.41" ry="1.88" transform="translate(-13.75 23.23) rotate(-5.51)"/><path class="cls-13" d="M238.73,154.82a23.45,23.45,0,0,1-3.26.09l0-1c12.56.5,22.21-9.64,22.31-9.75l.75.71C258.48,144.94,250.13,153.72,238.73,154.82Z"/><path class="cls-6" d="M217,126.1c1-7,4.69-14.78,10.73-18.76,5.41-3.56,12.65-3.79,18.61-1.5,5.14,2,8.54,6.36,10.22,11.48,1.42,4.36,1.61,8.84,1.95,13.36.11,1.5,2.45,1.51,2.34,0-.32-4.31-.49-8.6-1.67-12.79-1.54-5.46-4.69-10.47-9.79-13.21A23.69,23.69,0,0,0,229,104c-5.09,2.34-8.82,6.89-11.19,11.87a34.6,34.6,0,0,0-3.09,9.66c-.21,1.48,2,2.11,2.26.62Z"/><ellipse class="cls-6" cx="258.41" cy="138.2" rx="8.02" ry="9.97"/><ellipse class="cls-9" cx="259.67" cy="138.2" rx="7.62" ry="9.47"/><rect class="cls-15" x="272.84" y="61.09" width="48.82" height="32.71" rx="4.76"/><rect class="cls-7" x="271.69" y="59.99" width="48.82" height="32.71" rx="4.76"/><path class="cls-16" d="M299.41,66a5.8,5.8,0,0,1,2.35,2,4.87,4.87,0,0,1,.86,2.8,5.1,5.1,0,0,1-.39,2,5.37,5.37,0,0,1-1,1.5,15.33,15.33,0,0,1-1.5,1.41,11.81,11.81,0,0,0-1.85,1.92,3.45,3.45,0,0,0-.61,2.09v.4a.79.79,0,0,1-.79.79h-1.07a.76.76,0,0,1-.55-.23.75.75,0,0,1-.23-.56v-.61a4.86,4.86,0,0,1,.4-2,5.88,5.88,0,0,1,1-1.5c.38-.4.89-.9,1.53-1.48a11.73,11.73,0,0,0,1.81-1.84,3.08,3.08,0,0,0,.6-1.9,2.57,2.57,0,0,0-1.16-2.21,4.78,4.78,0,0,0-2.79-.81,4.26,4.26,0,0,0-2.61.78A4.15,4.15,0,0,0,292,70.92a.78.78,0,0,1-.76.64H290a.65.65,0,0,1-.46-.19.48.48,0,0,1-.17-.45,5.89,5.89,0,0,1,.85-2.67,6,6,0,0,1,2.27-2.15,7.18,7.18,0,0,1,3.58-.84A7.8,7.8,0,0,1,299.41,66Zm-2,19.67a.79.79,0,0,1-.56.23h-1.65a.76.76,0,0,1-.55-.23.74.74,0,0,1-.23-.55V83.43a.74.74,0,0,1,.23-.55.76.76,0,0,1,.55-.23h1.65a.79.79,0,0,1,.79.78v1.66A.78.78,0,0,1,297.37,85.64Z"/><path class="cls-15" d="M217.52,30.51H178.6a5,5,0,0,0-4.95,5v22.8a5,5,0,0,0,4.95,5h27.6l10.46,7.42V63.23h.86a5,5,0,0,0,4.95-5V35.47A5,5,0,0,0,217.52,30.51Z"/><path class="cls-7" d="M216.35,29.45H177.43a5,5,0,0,0-5,5v22.8a5,5,0,0,0,5,4.95H205l10.45,7.43V62.16h.86a5,5,0,0,0,5-4.95V34.41A5,5,0,0,0,216.35,29.45Z"/><path class="cls-16" d="M216.19,37.9H177.6a.39.39,0,0,0,0,.78h38.59a.39.39,0,0,0,0-.78Z"/><path class="cls-16" d="M216.19,43H177.6a.39.39,0,0,0,0,.78h38.59a.39.39,0,0,0,0-.78Z"/><path class="cls-16" d="M204.66,48.07H177.6a.39.39,0,0,0,0,.78h27.06a.39.39,0,0,0,0-.78Z"/><path class="cls-16" d="M204.66,53.15H177.6a.4.4,0,0,0,0,.79h27.06a.4.4,0,0,0,0-.79Z"/><path class="cls-15" d="M196.68,71.16H171.4a3.22,3.22,0,0,0-3.22,3.22V89.19a3.22,3.22,0,0,0,3.22,3.22h17.93l6.79,4.82V92.41h.56a3.22,3.22,0,0,0,3.21-3.22V74.38A3.22,3.22,0,0,0,196.68,71.16Z"/><path class="cls-7" d="M195.92,70.47H170.64a3.22,3.22,0,0,0-3.22,3.22V88.5a3.22,3.22,0,0,0,3.22,3.22h17.93l6.79,4.82V91.72h.56a3.22,3.22,0,0,0,3.21-3.22V73.69A3.22,3.22,0,0,0,195.92,70.47Z"/><path class="cls-16" d="M195.81,76H170.74a.26.26,0,0,0,0,.51h25.07a.26.26,0,0,0,0-.51Z"/><path class="cls-16" d="M195.81,79.26H170.74a.26.26,0,0,0,0,.51h25.07a.26.26,0,0,0,0-.51Z"/><path class="cls-16" d="M188.32,82.56H170.74a.26.26,0,0,0,0,.51h17.58a.26.26,0,0,0,0-.51Z"/><path class="cls-16" d="M188.32,85.87H170.74a.25.25,0,0,0,0,.5h17.58a.25.25,0,0,0,0-.5Z"/><rect class="cls-15" x="102.94" y="107.73" width="48.82" height="32.71" rx="4.76"/><rect class="cls-7" x="101.49" y="106.43" width="48.82" height="32.71" rx="4.76"/><path class="cls-16" d="M121.44,114.16c.35,3.7,4.3,3.11,4.3,3.11,2.42.36,2.06,5.64,2.06,5.64s-.26,5.29-2.7,5.36c0,0-3.86-1-4.63,2.6s1.41,5.5,5,5.25c0,0,5-.48,5.69-13.13.41-12.81-4.14-13.47-4.14-13.47C123.49,108.86,121.1,110.45,121.44,114.16Z"/><path class="cls-6" d="M279,267.45c11.7-5.73,19.8-16.64,26.05-27.86,11.34-20.36,18.18-43.92,14.38-66.78-.74-4.49-2.37-9.5-6.63-11.34a9.7,9.7,0,0,0-6.47-.24c-4.17,1.21-7.4,4.58-9.34,8.37s-2.78,8-3.55,12.2c-5.51,29.57-9.4,59.66-19.95,87.9"/><path class="cls-17" d="M276.92,267.93c9.06-4.21,19.43-17.12,24.46-25.74,9.13-15.64,15.9-31.87,13.56-49.81-.46-3.51-1.58-7.47-4.79-9a7.23,7.23,0,0,0-4.92-.34,12.38,12.38,0,0,0-7.32,6.33,35.49,35.49,0,0,0-3,9.44c-4.91,23-8.59,46.37-17.31,68.17"/><path class="cls-7" d="M308.76,173.79c-1,7.07-2,14.14-3.2,21.18s-2.63,13.93-4.41,20.8A142.43,142.43,0,0,1,295,234.4a137.42,137.42,0,0,1-8.73,17.41,120.87,120.87,0,0,1-11,15.64c-.5.6-1,1.19-1.51,1.78-.11.12.07.3.18.18A118,118,0,0,0,285.2,254.1a133,133,0,0,0,15.51-35.68c1.89-6.89,3.39-13.89,4.66-20.92s2.32-14.12,3.3-21.21c.12-.83.23-1.67.35-2.5,0-.16-.24-.16-.26,0Z"/><path class="cls-6" d="M283.52,266.18a170.61,170.61,0,0,0,27.29,4c15,.87,33.36.32,45.26-8.83,3.86-3,7.23-7.83,5.65-12.44-1-2.92-3.84-4.93-6.83-5.72a25,25,0,0,0-9.22-.19,138.87,138.87,0,0,0-62.15,23.16"/><path class="cls-17" d="M286.9,265.46a138.31,138.31,0,0,0,21.17,2.9c11.63.62,25.89.19,35.14-6.54,3-2.19,5.62-5.76,4.4-9.14-.77-2.15-3-3.62-5.29-4.19a20.43,20.43,0,0,0-7.15-.13,112.09,112.09,0,0,0-48.27,17.1"/><path class="cls-7" d="M349.43,253.12l-12.51,2.81q-6.39,1.43-12.79,2.79t-12.93,2.65q-6.43,1.26-12.9,2.37c-4.25.72-8.51,1.39-12.78,2l-1.55.2c-.18,0-.18.32,0,.3q6.38-.86,12.73-1.92T309.56,262c4.32-.83,8.63-1.71,12.94-2.61s8.59-1.85,12.88-2.8,8.41-1.88,12.61-2.83l1.52-.34c.19,0,.1-.32-.08-.28Z"/><path class="cls-6" d="M279.94,265c17-.89,36-11,49.62-21.21,9-6.72,17.83-13.86,24.45-22.91a64.39,64.39,0,0,0,11.08-25c1.21-5.9,1-13.22-4.08-16.44a10.94,10.94,0,0,0-9.4-.66,23.84,23.84,0,0,0-8.05,5.37c-6.77,6.33-12,14.12-17.23,21.75-13.73,19.84-30.77,40.7-46.39,59.09"/><path class="cls-17" d="M284.53,262.56c13.14-.65,27.79-8.09,38.32-15.62,6.93-4.95,13.77-10.21,18.89-16.87a46.42,46.42,0,0,0,8.56-18.41c.93-4.34.77-9.73-3.16-12.1a8.83,8.83,0,0,0-7.26-.49,18.53,18.53,0,0,0-6.22,4c-5.22,4.66-9.23,10.4-13.3,16-10.6,14.62-23.77,30-35.83,43.52"/><path class="cls-7" d="M354.39,193.64l-14.95,18.27c-4.43,5.41-8.82,10.84-13.34,16.17-4.15,4.91-8.43,9.72-13,14.26a117.55,117.55,0,0,1-14.48,12.45,77.68,77.68,0,0,1-16.55,9.2c-.72.29-1.45.56-2.18.83-.18.06-.1.34.08.28a76.19,76.19,0,0,0,16.76-8.63,112.33,112.33,0,0,0,14.68-12.06c4.66-4.49,9-9.28,13.24-14.18,4.44-5.17,8.74-10.48,13.06-15.76l15-18.33,1.88-2.29c.12-.15-.09-.36-.21-.21Z"/><g class="cls-18"><path class="cls-6" d="M334.82,247.87a32.25,32.25,0,0,0,9.34-5.08c1.52-1.11,3-2.27,4.5-3.42s3.26-2.52,4.86-3.81q4.59-3.66,9-7.57t8.6-8.06c2.79-2.76,5.52-5.6,8.16-8.5l1-1.06c.23-.25-.14-.63-.37-.37-2.61,2.89-5.29,5.73-8.05,8.48s-5.58,5.45-8.48,8.06-5.85,5.15-8.88,7.61-6.25,5-9.43,7.35a37.09,37.09,0,0,1-9.11,5.44c-.4.15-.81.29-1.22.42a.26.26,0,0,0,.14.51Z"/><path class="cls-6" d="M378.74,211.36a7.12,7.12,0,0,1,3.53-5.5,2.21,2.21,0,0,1,2.54-.06,1.7,1.7,0,0,1,.29,1.86,4.16,4.16,0,0,1-1.27,1.53,15.48,15.48,0,0,1-5.19,2.84"/><path class="cls-6" d="M376.59,214a4.25,4.25,0,0,1-1.58-2.9,5.23,5.23,0,0,1,0-2.36,2.58,2.58,0,0,1,1.46-1.78.7.7,0,0,1,.35-.06.63.63,0,0,1,.31.17,2.23,2.23,0,0,1,.73,1.54,5.34,5.34,0,0,1-.21,1.73,18.66,18.66,0,0,1-1.39,3.76"/><path class="cls-6" d="M371.69,218.69a2.68,2.68,0,0,1-1-.73,5.35,5.35,0,0,1-1.76-2.81,4.15,4.15,0,0,1,.18-1.68,3.35,3.35,0,0,1,1.46-2.15,1.22,1.22,0,0,1,.85-.15,1.21,1.21,0,0,1,.76.72,2.79,2.79,0,0,1,.16,1.07,18.78,18.78,0,0,1-.67,5.73"/><path class="cls-6" d="M366.26,224.3c-.1.09-.26,0-.37-.07a8.29,8.29,0,0,1-2.39-2.81,5.35,5.35,0,0,1-.44-3.62,2.07,2.07,0,0,1,.91-1.37,1.69,1.69,0,0,1,2,.45,3.5,3.5,0,0,1,.81,2,16.38,16.38,0,0,1-.61,5.77"/><path class="cls-6" d="M360.16,229.94a3.25,3.25,0,0,1-1.35-1.07,9.94,9.94,0,0,1-2.14-3.67,4.58,4.58,0,0,1,.67-4.07,1.46,1.46,0,0,1,2.53,0c1.11,1.39,1.14,3.33,1,5.1a30.24,30.24,0,0,1-.52,3.28"/><path class="cls-6" d="M352.32,236.2a10.46,10.46,0,0,1-3.94-7.84c0-1.16.3-2.54,1.38-3a2.14,2.14,0,0,1,2.1.46,4.15,4.15,0,0,1,1.14,1.91c.8,2.53.3,5.27-.2,7.87"/><path class="cls-6" d="M371.93,219a10.19,10.19,0,0,1,5.62-.28c.46.07,1,.19,1.18.61a1.12,1.12,0,0,1-.29,1.14,2.85,2.85,0,0,1-1.93.88,5,5,0,0,1-2.12-.36,6.53,6.53,0,0,1-2.79-1.91"/><path class="cls-6" d="M376.7,213.87a10.29,10.29,0,0,1,5.62-.27c.45.07,1,.19,1.17.61a1.07,1.07,0,0,1-.29,1.13,2.8,2.8,0,0,1-1.92.89,5,5,0,0,1-2.13-.37,6.56,6.56,0,0,1-2.78-1.91"/><path class="cls-6" d="M366.32,224.2a8,8,0,0,1,7,.07,1.94,1.94,0,0,1,1.11,1.1,1.36,1.36,0,0,1-.42,1.27,2.4,2.4,0,0,1-1.25.6,5.54,5.54,0,0,1-3.16-.35,11.07,11.07,0,0,1-2.74-1.69,1.92,1.92,0,0,1-.76-1"/><path class="cls-6" d="M360.24,229.58c2.12-.74,4.45-.31,6.62.27a3.28,3.28,0,0,1,2.18,1.29,2.14,2.14,0,0,1-1,2.74,4,4,0,0,1-3.16.05,9,9,0,0,1-4.56-3.9"/><path class="cls-6" d="M352.7,235.69a7.86,7.86,0,0,1,5,.26,22.84,22.84,0,0,1,4.52,2.41c.71.44,1.48,1,1.55,1.83a1.75,1.75,0,0,1-.74,1.46,3.47,3.47,0,0,1-1.59.57,8.61,8.61,0,0,1-7.67-3.49,5,5,0,0,1-1.25-3.45"/><path class="cls-6" d="M343.42,243.31c-.08.15-.31,0-.44-.08a9.47,9.47,0,0,1-2.81-8.25,4.2,4.2,0,0,1,.55-1.63,4.43,4.43,0,0,1,2.11-1.57,1.09,1.09,0,0,1,.61-.13,1.05,1.05,0,0,1,.64.48,7.63,7.63,0,0,1,1.32,5.5,13.78,13.78,0,0,1-2,5.38"/><path class="cls-6" d="M342.89,243.28a7.46,7.46,0,0,1,4.05-.44,19.51,19.51,0,0,1,4,1.11,6.38,6.38,0,0,1,2.63,1.47,2.3,2.3,0,0,1,.42,2.78,3.08,3.08,0,0,1-2.68,1,9.92,9.92,0,0,1-5.49-1.65,6.5,6.5,0,0,1-2.84-4.85"/></g><g class="cls-18"><path class="cls-6" d="M318.32,219.89a32,32,0,0,0,4.68-9.55c.6-1.79,1.14-3.59,1.69-5.39.6-2,1.2-3.94,1.76-5.92q1.62-5.64,2.93-11.37t2.35-11.55q1-5.81,1.73-11.66c.06-.47.12-.95.17-1.42s-.48-.43-.52-.09c-.45,3.87-1,7.74-1.64,11.58s-1.4,7.68-2.25,11.48-1.79,7.59-2.84,11.35S324.16,205,323,208.8a37.31,37.31,0,0,1-4.28,9.71c-.24.36-.49.71-.76,1.05s.2.6.41.33Z"/><path class="cls-6" d="M333,164.69a7.09,7.09,0,0,1-.31-6.52c.39-.82,1.13-1.65,2-1.52A1.7,1.7,0,0,1,336,158a4.18,4.18,0,0,1-.15,2,15.32,15.32,0,0,1-2.59,5.32"/><path class="cls-6" d="M332.8,168.13a4.27,4.27,0,0,1-3-1.45,5.45,5.45,0,0,1-1.38-1.92,2.58,2.58,0,0,1,.16-2.3.69.69,0,0,1,.26-.25.78.78,0,0,1,.34-.05,2.26,2.26,0,0,1,1.49.84,5.21,5.21,0,0,1,.83,1.54,18.37,18.37,0,0,1,1.05,3.86"/><path class="cls-6" d="M331.5,174.75a2.69,2.69,0,0,1-1.23,0,5.37,5.37,0,0,1-3.06-1.27,4.25,4.25,0,0,1-.83-1.48,3.36,3.36,0,0,1-.05-2.6,1.25,1.25,0,0,1,.61-.61,1.17,1.17,0,0,1,1,.15,3.05,3.05,0,0,1,.75.77,19.33,19.33,0,0,1,2.77,5.06"/><path class="cls-6" d="M330.31,182.47c0,.13-.2.16-.34.15a8,8,0,0,1-3.57-.9,5.39,5.39,0,0,1-2.46-2.7,2.08,2.08,0,0,1-.05-1.64,1.72,1.72,0,0,1,1.86-.77,3.49,3.49,0,0,1,1.8,1.15,16,16,0,0,1,2.84,5.05"/><path class="cls-6" d="M328.61,190.61a3.26,3.26,0,0,1-1.72-.1,9.91,9.91,0,0,1-3.88-1.75,4.57,4.57,0,0,1-1.8-3.71,1.45,1.45,0,0,1,2-1.48c1.71.48,2.86,2.05,3.74,3.59a29.5,29.5,0,0,1,1.48,3"/><path class="cls-6" d="M325.84,200.25a10.46,10.46,0,0,1-7.75-4.12c-.7-.93-1.23-2.24-.6-3.21a2.14,2.14,0,0,1,2-.85,4.15,4.15,0,0,1,2,.91c2.11,1.59,3.29,4.11,4.39,6.53"/><path class="cls-6" d="M331.87,174.87a10.24,10.24,0,0,1,4.42-3.48,1.43,1.43,0,0,1,1.31-.19,1.1,1.1,0,0,1,.42,1.1,2.78,2.78,0,0,1-1,1.83,5,5,0,0,1-2,.94,6.57,6.57,0,0,1-3.38.05"/><path class="cls-6" d="M332.78,167.93a10.33,10.33,0,0,1,4.43-3.48,1.39,1.39,0,0,1,1.31-.18,1.08,1.08,0,0,1,.42,1.09,2.8,2.8,0,0,1-1.05,1.84,5.18,5.18,0,0,1-1.95.93,6.57,6.57,0,0,1-3.38.06"/><path class="cls-6" d="M330.3,182.36a8,8,0,0,1,5.77-4,1.91,1.91,0,0,1,1.54.26,1.35,1.35,0,0,1,.4,1.27,2.59,2.59,0,0,1-.67,1.21,5.46,5.46,0,0,1-2.79,1.55,10.77,10.77,0,0,1-3.21.2,1.85,1.85,0,0,1-1.2-.37"/><path class="cls-6" d="M328.46,190.27c1.3-1.83,3.46-2.83,5.56-3.62a3.24,3.24,0,0,1,2.52-.21,2.13,2.13,0,0,1,.77,2.82,4,4,0,0,1-2.54,1.86,9,9,0,0,1-6-.54"/><path class="cls-6" d="M325.86,199.61a7.88,7.88,0,0,1,4.25-2.71,23.5,23.5,0,0,1,5.09-.65,2.75,2.75,0,0,1,2.32.6,1.76,1.76,0,0,1,.24,1.62,3.51,3.51,0,0,1-1,1.38,8.59,8.59,0,0,1-8.27,1.6,5,5,0,0,1-3-2.09"/><path class="cls-6" d="M322.7,211.19c0,.17-.23.22-.4.2a9.52,9.52,0,0,1-7.08-5.1,4.2,4.2,0,0,1-.49-1.65,4.44,4.44,0,0,1,.81-2.51.88.88,0,0,1,1.23-.43,7.61,7.61,0,0,1,4.25,3.72,13.66,13.66,0,0,1,1.46,5.56"/><path class="cls-6" d="M322.25,211.48a7.61,7.61,0,0,1,3.05-2.71,19.49,19.49,0,0,1,3.88-1.39,6.53,6.53,0,0,1,3-.33,2.32,2.32,0,0,1,2,2,3.09,3.09,0,0,1-1.64,2.33,9.91,9.91,0,0,1-5.44,1.83,6.48,6.48,0,0,1-5.12-2.31"/></g><g class="cls-18"><path class="cls-6" d="M209.82,226.33a32,32,0,0,0-3.66-10c-.87-1.67-1.8-3.31-2.72-5-1-1.8-2-3.59-3.06-5.37q-3-5.07-6.18-10c-2.15-3.29-4.4-6.52-6.72-9.68s-4.73-6.28-7.22-9.32l-.91-1.11c-.21-.26-.64,0-.42.32q3.73,4.5,7.22,9.2t6.74,9.56q3.24,4.88,6.23,9.9c2,3.43,4,6.9,5.9,10.4a37.56,37.56,0,0,1,4,9.81c.09.42.17.84.23,1.27s.58.27.52-.06Z"/><path class="cls-6" d="M180.12,177.54a7.06,7.06,0,0,1-4.92-4.29,2.21,2.21,0,0,1,.3-2.52,1.71,1.71,0,0,1,1.89,0,4.1,4.1,0,0,1,1.32,1.48,15.4,15.4,0,0,1,2.06,5.55"/><path class="cls-6" d="M182.45,180.06a4.21,4.21,0,0,1-3.09,1.14,5.44,5.44,0,0,1-2.34-.33,2.57,2.57,0,0,1-1.55-1.71.69.69,0,0,1,0-.35.66.66,0,0,1,.2-.29,2.28,2.28,0,0,1,1.64-.49,5.53,5.53,0,0,1,1.68.46,18.76,18.76,0,0,1,3.52,1.92"/><path class="cls-6" d="M186.34,185.58a2.5,2.5,0,0,1-.87.87,5.37,5.37,0,0,1-3,1.34,4.29,4.29,0,0,1-1.64-.43,3.35,3.35,0,0,1-1.91-1.76,1.22,1.22,0,0,1,0-.86,1.18,1.18,0,0,1,.82-.65,3,3,0,0,1,1.08,0,18.83,18.83,0,0,1,5.57,1.49"/><path class="cls-6" d="M191.1,191.78c.07.11,0,.26-.13.35a8,8,0,0,1-3.13,2,5.41,5.41,0,0,1-3.64-.09,2.08,2.08,0,0,1-1.22-1.1,1.7,1.7,0,0,1,.73-1.88,3.53,3.53,0,0,1,2.07-.51A16.1,16.1,0,0,1,191.4,192"/><path class="cls-6" d="M195.79,198.64a3.23,3.23,0,0,1-1.26,1.17,9.73,9.73,0,0,1-3.94,1.59,4.57,4.57,0,0,1-3.93-1.26,1.73,1.73,0,0,1-.51-1.56,1.7,1.7,0,0,1,.85-.94c1.53-.9,3.46-.65,5.18-.22a29.26,29.26,0,0,1,3.18,1"/><path class="cls-6" d="M200.84,207.31a10.48,10.48,0,0,1-8.34,2.75c-1.15-.15-2.46-.67-2.73-1.8a2.13,2.13,0,0,1,.76-2,4.14,4.14,0,0,1,2.06-.85c2.62-.42,5.25.47,7.76,1.35"/><path class="cls-6" d="M186.68,185.4a10.28,10.28,0,0,1,.55-5.6c.13-.45.33-1,.77-1.08a1.12,1.12,0,0,1,1.09.45,2.9,2.9,0,0,1,.59,2,5,5,0,0,1-.67,2,6.46,6.46,0,0,1-2.3,2.48"/><path class="cls-6" d="M182.3,179.93a10.38,10.38,0,0,1,.55-5.6c.14-.44.34-.94.78-1.07a1.09,1.09,0,0,1,1.08.45,2.83,2.83,0,0,1,.6,2,5.13,5.13,0,0,1-.68,2,6.51,6.51,0,0,1-2.29,2.48"/><path class="cls-6" d="M191,191.71a8,8,0,0,1,1.09-6.94,1.94,1.94,0,0,1,1.25-.93,1.35,1.35,0,0,1,1.2.59,2.57,2.57,0,0,1,.41,1.32,5.5,5.5,0,0,1-.81,3.08,10.83,10.83,0,0,1-2.07,2.46,2,2,0,0,1-1.1.62"/><path class="cls-6" d="M195.45,198.51c-.42-2.21.34-4.45,1.22-6.52a3.3,3.3,0,0,1,1.6-2,2.14,2.14,0,0,1,2.57,1.39,4,4,0,0,1-.41,3.13,9.08,9.08,0,0,1-4.53,3.95"/><path class="cls-6" d="M200.39,206.85a7.82,7.82,0,0,1,1-4.94,23.06,23.06,0,0,1,3-4.12c.55-.63,1.22-1.32,2-1.27a1.74,1.74,0,0,1,1.34.95,3.56,3.56,0,0,1,.33,1.65,8.6,8.6,0,0,1-4.57,7.08,5,5,0,0,1-3.6.73"/><path class="cls-6" d="M206.57,217.15c.13.1,0,.31-.14.42a9.46,9.46,0,0,1-8.57,1.58,4.16,4.16,0,0,1-1.54-.78,4.46,4.46,0,0,1-1.24-2.32,1.1,1.1,0,0,1,0-.62,1.06,1.06,0,0,1,.57-.57,7.62,7.62,0,0,1,5.63-.5,13.68,13.68,0,0,1,5,2.8"/><path class="cls-6" d="M206.46,217.67a7.56,7.56,0,0,1,.16-4.08,19.46,19.46,0,0,1,1.68-3.76,6.56,6.56,0,0,1,1.83-2.39,2.32,2.32,0,0,1,2.82,0,3.1,3.1,0,0,1,.55,2.79,9.94,9.94,0,0,1-2.44,5.2,6.44,6.44,0,0,1-5.21,2.09"/></g><path class="cls-16" d="M248.31,170.33c10.5.44,21.87,3.61,29.56,10.78a5.39,5.39,0,0,1,1.57,2.11A6.3,6.3,0,0,1,279,187a77.65,77.65,0,0,0-.7,44.39c1.07,3.78,2.44,7.51,2.81,11.42s-.41,8.15-3.11,11a14.6,14.6,0,0,1-4.13,2.9c-8.41,4.25-18.28,4.09-27.69,3.7-5.81-.24-11.67-.54-17.25-2.13S218,253.72,214.62,249s-4.6-11-5-17c-1-13.57.83-27.18,1.08-40.79.08-4,0-8-1.55-11.68,7.17-5,15.74-8,24.29-9.67a9.44,9.44,0,0,0,7.47,3.71,9,9,0,0,0,7.44-3.24"/><path class="cls-19" d="M276.7,241.14c-.34-3.92,2.44-8.44,1.45-12.22-2.51-9.61-7.26-18.95-6.24-28.87a11.29,11.29,0,0,0-5.22,4.64,12.76,12.76,0,0,0-1.17,5.77c0,4,.7,7.9.85,11.86s-.34,8.14-2.57,11.38c-2.57,3.75-7,5.64-11.35,6.8a85.74,85.74,0,0,1-8.86,1.78,36.66,36.66,0,0,1-10.34.55,14.18,14.18,0,0,1-9.12-4.55c-3.58-4.26-3.47-10.44-4.11-16a50.06,50.06,0,0,0-5.42-17.53,10.37,10.37,0,0,0-3.41-4.23h0c-.53,9.93-6.28,20.37-5.6,30.28.41,6,6.45,11.65,9.69,16.51a24.1,24.1,0,0,0,13.24,9.3c5.16,1.59,10.57,1.89,15.93,2.13,8.69.4,17.81.55,25.58-3.7a13.57,13.57,0,0,0,3.81-2.9C276.32,249.28,277,245.05,276.7,241.14Z"/><path class="cls-16" d="M213.48,176.83c3.25,14.42.45,31.44-3.15,45.77-1.07,4.26-.84,8.93.68,11.1s4.31,3.58,6.8,4.73A44.08,44.08,0,0,1,232,248.84a16.59,16.59,0,0,1,4.16,6.35,7.86,7.86,0,0,1-1.08,7.27,8.47,8.47,0,0,1-6.58,2.66,31.76,31.76,0,0,1-7.2-1.24,75.11,75.11,0,0,0-12.12-1.81c-3.53-.24-7.12-.24-10.52-1.24a20.19,20.19,0,0,1-11.53-9.2,24.15,24.15,0,0,1-3-14.55,50.21,50.21,0,0,1,1.65-7.92c2.9-10.8,6.9-20.25,10.56-30.81a55.89,55.89,0,0,1,6.9-12.94c2.64-3.74,5.69-7.81,10.2-8.58"/><path class="cls-7" d="M214.67,204.29c2-8.91,1.26-18.76-.84-27.55-.1-.46-.81-.27-.7.19a68.18,68.18,0,0,1,1.75,19.15,47.94,47.94,0,0,1-.92,8c-.1.46.6.65.71.19Z"/><path class="cls-11" d="M241.24,255.29s-9.65-2.4-13.27-.33-9.09,5.09-8.93,8.93v1.58s25.88.75,28-1.58"/><path class="cls-16" d="M270.08,175.75c4.74.55,9.92,6.06,13.19,10.84s5.51,10.16,7.71,15.52l12.39,30.06a49,49,0,0,1,3.19,9.53,24.78,24.78,0,0,1,.13,8.33,13.34,13.34,0,0,1-2.45,6.31c-2,2.54-5.15,3.83-8.16,5-6.38,2.42-12.91,4.69-19.71,5.16a74.54,74.54,0,0,1-8.05,0c-7.41-.27-14.86-.54-22.15-1.9a3.3,3.3,0,0,1-1.5-.53,3.51,3.51,0,0,1-.91-1.37l-2.2-4.81a5.81,5.81,0,0,1-.75-2.82,5.44,5.44,0,0,1,2.05-3.28,32.34,32.34,0,0,1,8.72-5.77c6.58-3,14.08-3.69,20.26-7.4a9.16,9.16,0,0,0,2.07-1.58c2.28-2.41,2.14-6.31.87-9.37s-2.17-6-3.43-9.07c-2.79-6.83-4.18-11.29-4.33-17.14-.22-8.32.4-17.8,3.06-25.68"/><path class="cls-19" d="M245,250.1a20.9,20.9,0,0,1,2.12,3.85,32.29,32.29,0,0,1,2.67,10.92c0,.47.76.47.73,0a33.31,33.31,0,0,0-2.64-11,20.65,20.65,0,0,0-2.25-4.16c-.28-.37-.91,0-.63.37Z"/><path class="cls-7" d="M267.06,204.69c-.61-9.54.12-19.83,3.37-28.85.16-.44-.54-.63-.7-.19-3.27,9.07-4,19.45-3.4,29,0,.46.76.47.73,0Z"/><rect class="cls-20" x="31.07" y="267.74" width="345.1" height="6.3" rx="3.03"/><rect class="cls-21" x="168.4" y="264.81" width="117.71" height="2.93" rx="0.5"/><polygon class="cls-21" points="220.06 267.74 119.63 267.74 114.78 198.01 213.19 198.01 220.06 267.74"/><polygon class="cls-22" points="216.64 267.74 116.21 267.74 111.36 198.01 209.78 198.01 216.64 267.74"/><circle class="cls-23" cx="164" cy="232.87" r="6"/><path class="cls-15" d="M112.2,210.06l4,57.62H216.64l-1.34-13.62C162.44,247.22,126,221.44,112.2,210.06Z"/></g></g></svg>