<svg xmlns="http://www.w3.org/2000/svg" viewBox="0 0 221.71 202.43"><defs><style>.cls-1{fill:#efefef;}.cls-2{fill:#a4afc1;}.cls-3{fill:#f3f3f1;}.cls-4{fill:#af98f2;}.cls-5{fill:#d5dbe1;}.cls-6{fill:#7954ea;}</style></defs><title>mp-icon</title><g id="Layer_2" data-name="Layer 2"><g id="Layer_1-2" data-name="Layer 1"><g id="Logo"><path class="cls-1" d="M198.9,41.19c0,44,22.81,74.26,22.81,95.47s-12.2,65.77-109.79,65.77S0,142.5,0,119.16C0,9.9,198.9-36.78,198.9,41.19Z"/><path class="cls-2" d="M34.3,9l9-9,4.5,4.5-9,9Z"/><path class="cls-2" d="M8.42,34.88l9-9,4.5,4.5-9,9Z"/><path class="cls-2" d="M9.55,4.5,14.05,0l9,9-4.5,4.5Z"/><path class="cls-3" d="M169.73,167.68H52A12.73,12.73,0,0,1,39.25,155V59.48H182.46V155A12.72,12.72,0,0,1,169.73,167.68Z"/><path class="cls-4" d="M182.46,59.48H39.25V49.93A12.73,12.73,0,0,1,52,37.2H169.73a12.71,12.71,0,0,1,12.73,12.71v9.57Z"/><path class="cls-4" d="M165.34,110.4a17.11,17.11,0,0,1-17.12-17.12V59.48h34.24v33.8a17.11,17.11,0,0,1-17.12,17.12Z"/><path class="cls-4" d="M129.54,110.4a18.68,18.68,0,0,1-18.68-18.68V59.48h37.36V91.72a18.68,18.68,0,0,1-18.68,18.68Z"/><path class="cls-4" d="M92.18,110.4A18.68,18.68,0,0,1,73.5,91.72V59.48h37.36V91.72A18.7,18.7,0,0,1,92.18,110.4Z"/><path class="cls-4" d="M56.37,110.4A17.14,17.14,0,0,1,39.25,93.28V59.48H73.5v33.8A17.13,17.13,0,0,1,56.37,110.4Z"/><path class="cls-5" d="M55.16,155V107.21l-15.91-6.36V155A12.73,12.73,0,0,0,52,167.68H67.89A12.73,12.73,0,0,1,55.16,155Z"/><path class="cls-6" d="M66.3,37.2H52A12.73,12.73,0,0,0,39.25,49.91v9.57H53.57V49.93A12.73,12.73,0,0,1,66.3,37.2Z"/><path class="cls-6" d="M162.54,93.28V59.48H148.22v33.8a17,17,0,0,0,24.28,15.5A17.08,17.08,0,0,1,162.54,93.28Z"/><path class="cls-6" d="M125.18,91.72V59.48H110.86V91.72A18.65,18.65,0,0,0,136.7,109a18.68,18.68,0,0,1-11.52-17.24Z"/><path class="cls-6" d="M87.82,91.72V59.48H73.5V91.72A18.65,18.65,0,0,0,99.34,109,18.69,18.69,0,0,1,87.82,91.72Z"/><path class="cls-6" d="M53.57,93.28V59.48H39.25v33.8a17,17,0,0,0,24.28,15.5A17.08,17.08,0,0,1,53.57,93.28Z"/><path d="M39.25,54.7H182.46v9.55H39.25Z"/><path d="M165.34,115.17a21.93,21.93,0,0,1-21.89-21.89V59.48a4.78,4.78,0,0,1,4.76-4.78h34.26a4.78,4.78,0,0,1,4.77,4.78v33.8A21.92,21.92,0,0,1,165.34,115.17ZM153,64.25v29a12.35,12.35,0,0,0,24.69,0v-29Z"/><path d="M129.54,115.17a23.49,23.49,0,0,1-23.46-23.45V59.48a4.78,4.78,0,0,1,4.78-4.78h37.35A4.78,4.78,0,0,1,153,59.47h0V91.72A23.48,23.48,0,0,1,129.54,115.17ZM115.63,64.25V91.72a13.91,13.91,0,0,0,27.82,0V64.25Z"/><path d="M92.18,115.17A23.49,23.49,0,0,1,68.72,91.72V59.48A4.78,4.78,0,0,1,73.5,54.7h37.36a4.78,4.78,0,0,1,4.77,4.78V91.72A23.49,23.49,0,0,1,92.18,115.17ZM78.28,64.25V91.72a13.91,13.91,0,0,0,27.81,0V64.25Z"/><path d="M56.37,115.17A21.93,21.93,0,0,1,34.48,93.28V59.48a4.78,4.78,0,0,1,4.77-4.78H73.5a4.78,4.78,0,0,1,4.78,4.78v33.8A21.93,21.93,0,0,1,56.37,115.17ZM44,64.25v29a12.35,12.35,0,0,0,24.69,0v-29Z"/><path d="M169.73,172.45H52A17.51,17.51,0,0,1,34.48,155V121.54H44V155a8,8,0,0,0,8,8H169.73a8,8,0,0,0,8-8V121.54h9.55V155A17.51,17.51,0,0,1,169.73,172.45Z"/><path d="M44,67.43H34.48V49.93A17.51,17.51,0,0,1,52,32.43H169.73a17.51,17.51,0,0,1,17.51,17.5V60.54h-9.55V49.93a8,8,0,0,0-8-8H52a8,8,0,0,0-8,8Z"/><path d="M9,162.91H212.7v9.54H9Z"/></g></g></g></svg>