<svg xmlns="http://www.w3.org/2000/svg" viewBox="0 0 689.79 202.43"><defs><style>.cls-1{fill:#f8f6fe;}.cls-2{fill:#efefef;}.cls-3{fill:#a4afc1;}.cls-4{fill:#f3f3f1;}.cls-5{fill:#af98f2;}.cls-6{fill:#d5dbe1;}.cls-7{fill:#7954ea;}</style></defs><title>mp-light-logo</title><g id="Layer_2" data-name="Layer 2"><g id="Layer_1-2" data-name="Layer 1"><g id="Logo"><path d="M296.16,73.75a18.28,18.28,0,0,0-9.39,6.62,19,19,0,0,0-3.31,11.39,12.15,12.15,0,0,0,.55,4.06,3.5,3.5,0,0,0,.39.86,1.08,1.08,0,0,1,.16.58,10,10,0,0,1-6.21-1.64C276.78,94.43,276,92.55,276,90a13.8,13.8,0,0,1,1-5.08,20.61,20.61,0,0,1,2.89-5,29.13,29.13,0,0,1,4.28-4.39A30.43,30.43,0,0,1,289.48,72a26.93,26.93,0,0,1,5.92-2.4,23.09,23.09,0,0,1,6.07-.84,17.68,17.68,0,0,1,6.06,1.13L305.69,112l17.62-42.15h11.52l-8.4,58.87H314.91L320,92.77l-15,35.94H294l1.6-36.09-13.36,36.09h-6.4Z"/><path d="M335.69,126.33q-3.29-3.36-3.28-10a32.93,32.93,0,0,1,.57-5.94,37.73,37.73,0,0,1,1.66-6.17,29,29,0,0,1,6.83-11.1A16.17,16.17,0,0,1,353,88.32a8.7,8.7,0,0,1,4.86,1.11,3.43,3.43,0,0,1,1.62,2.95V93l.86-4.26h11.52l-5.74,27.19a9,9,0,0,0-.35,2.58q0,3.43,3.28,3.43a5.11,5.11,0,0,0,4-2.22,14.86,14.86,0,0,0,2.5-5.32h3.36a30.07,30.07,0,0,1-5.21,9.6,15.17,15.17,0,0,1-5.82,4.22,13.37,13.37,0,0,1-5,.94,7.63,7.63,0,0,1-5.41-1.86,8.52,8.52,0,0,1-2.44-5.48,21,21,0,0,1-4.77,5,11.8,11.8,0,0,1-7.15,2.34A9.9,9.9,0,0,1,335.69,126.33ZM350.16,121a8.05,8.05,0,0,0,1.94-1.33,10.1,10.1,0,0,0,2.81-5.28l3.83-18a2.89,2.89,0,0,0-.18-.92,4.64,4.64,0,0,0-.49-1,3.22,3.22,0,0,0-2.61-1.13,5.3,5.3,0,0,0-3.11,1.06,11.72,11.72,0,0,0-2.83,2.92,30,30,0,0,0-3.87,8.87,35.42,35.42,0,0,0-1,4.79,29,29,0,0,0-.35,4.27q0,4,1.48,5.4a2.35,2.35,0,0,0,1.13.7,6.69,6.69,0,0,0,1.41.15A4.4,4.4,0,0,0,350.16,121Z"/><path d="M381,88.71h11.53l-1,5A31,31,0,0,1,396,90.27a10.48,10.48,0,0,1,5.19-1.52,5.15,5.15,0,0,1,4.14,1.84,5.36,5.36,0,0,1,1.06,1.89,7.4,7.4,0,0,1,.35,2.29,6.58,6.58,0,0,1-.35,2.11,5.36,5.36,0,0,1-2.95,3.2,5.9,5.9,0,0,1-2.48.51,3.38,3.38,0,0,1-1.68-.36,2.3,2.3,0,0,1-1-1,5.29,5.29,0,0,1-.43-1.29,7.62,7.62,0,0,0-.7-2.23,1,1,0,0,0-.86-.39,5.47,5.47,0,0,0-2.85.71,18.89,18.89,0,0,0-3,2.34L384,128.71H372.49Z"/><path d="M428.17,126.84a8.74,8.74,0,0,1-2.56-6.76,20.91,20.91,0,0,1,.47-4.18l.67-3.13a12,12,0,0,0,.31-2.93,5.14,5.14,0,0,0-.67-2.87,2.47,2.47,0,0,0-2.22-1,5.7,5.7,0,0,0-2.7.74,19.64,19.64,0,0,0-3.2,2.22l-4.18,19.77H402.57l11.6-54.41L426,72.69l-6,28.17,15.43-12.15h7.93l-16,11.13a10.85,10.85,0,0,1,2.66-.35,9.53,9.53,0,0,1,3.84.72,7.79,7.79,0,0,1,2.8,2.05,8.73,8.73,0,0,1,1.6,2.95,11.94,11.94,0,0,1,.55,3.66,12.1,12.1,0,0,1-.32,3l-.9,4a8.73,8.73,0,0,0-.39,2.58,3.15,3.15,0,0,0,.71,2.16,3,3,0,0,0,2.42.8,5.07,5.07,0,0,0,4-2,19.46,19.46,0,0,0,2.7-5.12h3.36q-2.94,8.88-7.7,12.43a11.37,11.37,0,0,1-7,2.38C432.38,129.18,429.88,128.4,428.17,126.84Z"/><path d="M449.4,126.21Q446,123,446,116.48a34.65,34.65,0,0,1,.49-5.47,41.35,41.35,0,0,1,1.47-6,35.37,35.37,0,0,1,2.79-6.37,25.25,25.25,0,0,1,4-5.31A17.38,17.38,0,0,1,467.6,88q4.89,0,7.11,2.34a7.47,7.47,0,0,1,1.72,5.31A14.14,14.14,0,0,1,475,102a17.32,17.32,0,0,1-4.1,5.29,21.42,21.42,0,0,1-5.94,3.62,22.37,22.37,0,0,1-6.88,1.58c-.13,1.35-.19,2.42-.19,3.2,0,2.61.49,4.4,1.48,5.39s2.29,1.33,4.3,1.33a14.21,14.21,0,0,0,7.93-2.34,19.34,19.34,0,0,0,2.93-2.33c.94-.9,2-2,3.28-3.42h2.74a35.3,35.3,0,0,1-8.72,10.2,21.4,21.4,0,0,1-13.28,4.61Q452.61,129.19,449.4,126.21ZM463,107.42a13.63,13.63,0,0,0,3.75-3,14.38,14.38,0,0,0,2.57-4.2,12.41,12.41,0,0,0,.94-4.74,5.25,5.25,0,0,0-.45-2.44,1.61,1.61,0,0,0-1.54-.84,4.27,4.27,0,0,0-2.91,1.4,16.32,16.32,0,0,0-2.83,3.87,34.59,34.59,0,0,0-2.27,5.23,42.78,42.78,0,0,0-1.6,6A10.69,10.69,0,0,0,463,107.42Z"/><path d="M479.64,126.91c-1.67-1.66-2.5-4.1-2.5-7.3a26.41,26.41,0,0,1,.62-5.24l4.81-22.46h-2.66l.66-3.2h2.62l2.42-11,11.84-1.61-2.74,12.66h4.81l-.63,3.2h-4.8L489,116a9,9,0,0,0-.31,2.58,2.94,2.94,0,0,0,.76,2.3,3.76,3.76,0,0,0,2.48.66,5.36,5.36,0,0,0,2.29-.52,7.47,7.47,0,0,0,2.05-1.47,12.12,12.12,0,0,0,2.89-5.08h3.36A28.51,28.51,0,0,1,497.1,124a16.21,16.21,0,0,1-6.17,4.22,14.67,14.67,0,0,1-5.24.94A8.09,8.09,0,0,1,479.64,126.91Z"/><path class="cls-1" d="M506.82,129.3a2.94,2.94,0,0,1-2.93-2.93h0l-.07-48.71a3.24,3.24,0,0,1,.78-1.84,2.56,2.56,0,0,1,2.11-1.09l12.3-.08a26.28,26.28,0,0,1,10,1.8,15.45,15.45,0,0,1,7,5.44,15.61,15.61,0,0,1,2.58,9.24q0,6.45-2.69,10.37a15.44,15.44,0,0,1-7.48,5.75,34.32,34.32,0,0,1-11.08,2l-7.62.15v17h0a2.94,2.94,0,0,1-2.93,2.93Zm25.9-38.17q0-5.75-3.87-8.18c-2.57-1.63-6-2.44-10.11-2.44h-9.06v23l7.5-.15a29.7,29.7,0,0,0,8.17-1.21,10.33,10.33,0,0,0,5.41-3.73,12.13,12.13,0,0,0,2-7.29Z"/><path class="cls-1" d="M549.91,74.65a2.9,2.9,0,0,1,2.28.95,3,3,0,0,1,.84,2v49.61a2.22,2.22,0,0,1-.91,1.75,2.89,2.89,0,0,1-1.78.75,3.26,3.26,0,0,1-2.25-.82,2.7,2.7,0,0,1-.91-2.11V77.69A3.17,3.17,0,0,1,548,75.6,2.46,2.46,0,0,1,549.91,74.65Z"/><path class="cls-1" d="M580.73,88.67a12.48,12.48,0,0,1,7.52,2.42,40,40,0,0,1,5.84,5.12l.35-4.92a3,3,0,0,1,.63-1.94,2.09,2.09,0,0,1,1.75-.8,2.73,2.73,0,0,1,2.74,2.72V126.6a2.74,2.74,0,0,1-5.47,0v-4.45a30.68,30.68,0,0,1-6.11,5.08,13.62,13.62,0,0,1-7.45,2.26,16.9,16.9,0,0,1-7.46-1.66,19.5,19.5,0,0,1-6-4.51,21.24,21.24,0,0,1,0-28.42,19.64,19.64,0,0,1,6.07-4.55A17.17,17.17,0,0,1,580.73,88.67Zm13.55,20.24a14.3,14.3,0,0,0-1.81-7.06,15.1,15.1,0,0,0-4.88-5.29,12.14,12.14,0,0,0-6.82-2,11.75,11.75,0,0,0-6.77,2,14.54,14.54,0,0,0-4.74,5.41,15.41,15.41,0,0,0,0,14.2,14.63,14.63,0,0,0,4.66,5.37,11.47,11.47,0,0,0,6.66,2,12.07,12.07,0,0,0,6.88-2.09,15.53,15.53,0,0,0,5-5.47,14.5,14.5,0,0,0,1.82-7.11Z"/><path class="cls-1" d="M608.15,109.06a20,20,0,0,1,2.58-10,20.81,20.81,0,0,1,6.95-7.4,17.62,17.62,0,0,1,9.77-2.81,17.45,17.45,0,0,1,7.26,1.48,18.49,18.49,0,0,1,5.67,3.91,17.72,17.72,0,0,1,3.67,5.31,2.8,2.8,0,0,1-.55,3.3,2.87,2.87,0,0,1-3.63.35,2.56,2.56,0,0,1-1.09-1.23,13.08,13.08,0,0,0-4.3-5.11,11.55,11.55,0,0,0-7-2.19,12.13,12.13,0,0,0-6.84,2,15,15,0,0,0-4.86,19.57,14.36,14.36,0,0,0,4.84,5.31,12.3,12.3,0,0,0,6.86,2,11.7,11.7,0,0,0,7-2.16,12.94,12.94,0,0,0,4.32-5.1,2.71,2.71,0,0,1,1.09-1.25,2.9,2.9,0,0,1,4,.81,3,3,0,0,1,.48,1.61,2.68,2.68,0,0,1-.27,1.21,18.19,18.19,0,0,1-3.69,5.29,18.55,18.55,0,0,1-5.71,3.93,17.54,17.54,0,0,1-7.28,1.48,17.75,17.75,0,0,1-9.81-2.81,20.72,20.72,0,0,1-9.49-17.5Z"/><path class="cls-1" d="M672.45,129.49a19.31,19.31,0,0,1-10.26-2.81,20.82,20.82,0,0,1-7.28-7.52,20.44,20.44,0,0,1-2.7-10.33,20,20,0,0,1,2.56-9.91,20.38,20.38,0,0,1,6.94-7.32,17.85,17.85,0,0,1,9.76-2.77,17.52,17.52,0,0,1,9.12,2.46,19,19,0,0,1,6.68,6.62,17.51,17.51,0,0,1,2.52,9.24,6.82,6.82,0,0,1-.64,3.08,2.42,2.42,0,0,1-2.37,1.29H658.35a15.33,15.33,0,0,0,2.56,6,14.8,14.8,0,0,0,4.88,4.43,13.08,13.08,0,0,0,6.58,1.68,14.1,14.1,0,0,0,6.06-1.37,13.3,13.3,0,0,0,4.88-3.75,2.74,2.74,0,0,1,2.3-1.13,2.94,2.94,0,0,1,2.93,2.93,3,3,0,0,1-.7,1.92,20,20,0,0,1-15.39,7.26Zm11.37-23.75a12.41,12.41,0,0,0-2.07-5.57,13,13,0,0,0-4.38-4,11.87,11.87,0,0,0-5.86-1.48,12.11,12.11,0,0,0-6,1.52,14.09,14.09,0,0,0-4.55,4,14.55,14.55,0,0,0-2.48,5.51Z"/><path class="cls-2" d="M198.9,41.19c0,44,22.81,74.26,22.81,95.47s-12.2,65.77-109.79,65.77S0,142.5,0,119.16C0,9.9,198.9-36.78,198.9,41.19Z"/><path class="cls-3" d="M34.3,9l9-9,4.5,4.5-9,9Z"/><path class="cls-3" d="M8.42,34.88l9-9,4.5,4.5-9,9Z"/><path class="cls-3" d="M9.55,4.5,14.05,0l9,9-4.5,4.5Z"/><path class="cls-4" d="M169.73,167.68H52A12.73,12.73,0,0,1,39.25,155V59.48H182.46V155A12.72,12.72,0,0,1,169.73,167.68Z"/><path class="cls-5" d="M182.46,59.48H39.25V49.93A12.73,12.73,0,0,1,52,37.2H169.73a12.71,12.71,0,0,1,12.73,12.71v9.57Z"/><path class="cls-5" d="M165.34,110.4a17.11,17.11,0,0,1-17.12-17.12V59.48h34.24v33.8a17.11,17.11,0,0,1-17.12,17.12Z"/><path class="cls-5" d="M129.54,110.4a18.68,18.68,0,0,1-18.68-18.68V59.48h37.36V91.72a18.68,18.68,0,0,1-18.68,18.68Z"/><path class="cls-5" d="M92.18,110.4A18.68,18.68,0,0,1,73.5,91.72V59.48h37.36V91.72A18.7,18.7,0,0,1,92.18,110.4Z"/><path class="cls-5" d="M56.37,110.4A17.14,17.14,0,0,1,39.25,93.28V59.48H73.5v33.8A17.13,17.13,0,0,1,56.37,110.4Z"/><path class="cls-6" d="M55.16,155V107.21l-15.91-6.36V155A12.73,12.73,0,0,0,52,167.68H67.89A12.73,12.73,0,0,1,55.16,155Z"/><path class="cls-7" d="M66.3,37.2H52A12.73,12.73,0,0,0,39.25,49.91v9.57H53.57V49.93A12.73,12.73,0,0,1,66.3,37.2Z"/><path class="cls-7" d="M162.54,93.28V59.48H148.22v33.8a17,17,0,0,0,24.28,15.5A17.08,17.08,0,0,1,162.54,93.28Z"/><path class="cls-7" d="M125.18,91.72V59.48H110.86V91.72A18.65,18.65,0,0,0,136.7,109a18.68,18.68,0,0,1-11.52-17.24Z"/><path class="cls-7" d="M87.82,91.72V59.48H73.5V91.72A18.65,18.65,0,0,0,99.34,109,18.69,18.69,0,0,1,87.82,91.72Z"/><path class="cls-7" d="M53.57,93.28V59.48H39.25v33.8a17,17,0,0,0,24.28,15.5A17.08,17.08,0,0,1,53.57,93.28Z"/><path d="M39.25,54.7H182.46v9.55H39.25Z"/><path d="M165.34,115.17a21.93,21.93,0,0,1-21.89-21.89V59.48a4.78,4.78,0,0,1,4.76-4.78h34.26a4.78,4.78,0,0,1,4.77,4.78v33.8A21.92,21.92,0,0,1,165.34,115.17ZM153,64.25v29a12.35,12.35,0,0,0,24.69,0v-29Z"/><path d="M129.54,115.17a23.49,23.49,0,0,1-23.46-23.45V59.48a4.78,4.78,0,0,1,4.78-4.78h37.35A4.78,4.78,0,0,1,153,59.47h0V91.72A23.48,23.48,0,0,1,129.54,115.17ZM115.63,64.25V91.72a13.91,13.91,0,0,0,27.82,0V64.25Z"/><path d="M92.18,115.17A23.49,23.49,0,0,1,68.72,91.72V59.48A4.78,4.78,0,0,1,73.5,54.7h37.36a4.78,4.78,0,0,1,4.77,4.78V91.72A23.49,23.49,0,0,1,92.18,115.17ZM78.28,64.25V91.72a13.91,13.91,0,0,0,27.81,0V64.25Z"/><path d="M56.37,115.17A21.93,21.93,0,0,1,34.48,93.28V59.48a4.78,4.78,0,0,1,4.77-4.78H73.5a4.78,4.78,0,0,1,4.78,4.78v33.8A21.93,21.93,0,0,1,56.37,115.17ZM44,64.25v29a12.35,12.35,0,0,0,24.69,0v-29Z"/><path d="M169.73,172.45H52A17.51,17.51,0,0,1,34.48,155V121.54H44V155a8,8,0,0,0,8,8H169.73a8,8,0,0,0,8-8V121.54h9.55V155A17.51,17.51,0,0,1,169.73,172.45Z"/><path d="M44,67.43H34.48V49.93A17.51,17.51,0,0,1,52,32.43H169.73a17.51,17.51,0,0,1,17.51,17.5V60.54h-9.55V49.93a8,8,0,0,0-8-8H52a8,8,0,0,0-8,8Z"/><path d="M9,162.91H212.7v9.54H9Z"/></g></g></g></svg>