<svg xmlns="http://www.w3.org/2000/svg" viewBox="0 0 500 372.61"><defs><style>.cls-1{fill:#ebebeb;}.cls-2{fill:#e6e6e6;}.cls-3{fill:#f0f0f0;}.cls-4{fill:#fafafa;}.cls-5{fill:#f5f5f5;}.cls-6{fill:#fff;}.cls-7{fill:#7954ea;}.cls-8,.cls-9{fill:#5c50a0;}.cls-10,.cls-9{opacity:0.2;}.cls-11{fill:#ffb573;}.cls-12{fill:#263238;}.cls-13{fill:#407bff;}.cls-14{opacity:0.3;}.cls-15{fill:#ed893e;}</style></defs><title>strategy2</title><g id="Layer_2" data-name="Layer 2"><g id="Background_Complete" data-name="Background Complete"><rect class="cls-1" y="327.45" width="500" height="0.25"/><rect class="cls-1" x="52.46" y="336.97" width="33.12" height="0.25"/><rect class="cls-1" x="153.44" y="334.26" width="26.39" height="0.25"/><rect class="cls-1" x="89.97" y="342.87" width="45.92" height="0.25"/><rect class="cls-1" x="428.3" y="344.58" width="21.6" height="0.25"/><rect class="cls-1" x="391.47" y="344.58" width="31.97" height="0.25"/><rect class="cls-1" x="277.21" y="340.35" width="55.12" height="0.25"/><path class="cls-1" d="M237,282.85H43.91a5.71,5.71,0,0,1-5.7-5.71V5.71A5.71,5.71,0,0,1,43.91,0H237a5.71,5.71,0,0,1,5.71,5.71V277.14A5.71,5.71,0,0,1,237,282.85ZM43.91.25a5.46,5.46,0,0,0-5.45,5.46V277.14a5.46,5.46,0,0,0,5.45,5.46H237a5.47,5.47,0,0,0,5.46-5.46V5.71A5.47,5.47,0,0,0,237,.25Z"/><path class="cls-1" d="M453.31,282.85H260.21a5.72,5.72,0,0,1-5.71-5.71V5.71A5.72,5.72,0,0,1,260.21,0h193.1A5.71,5.71,0,0,1,459,5.71V277.14A5.71,5.71,0,0,1,453.31,282.85ZM260.21.25a5.47,5.47,0,0,0-5.46,5.46V277.14a5.47,5.47,0,0,0,5.46,5.46h193.1a5.47,5.47,0,0,0,5.46-5.46V5.71A5.47,5.47,0,0,0,453.31.25Z"/><path class="cls-2" d="M393.3,211.69c-2.7-7.74-24,2.79-32.58,15.61-5.75,8.54-9.26,17.66-10.89,29.9.19-14,.42-29,.63-43.15,1.75-3.53,5.73-11.68,8.6-18.13,9.56-21.54,32.29-29.56,40.14-43.15,10.29-17.82,10.23-44.54,1.47-54.18-7.61-8.38-32.82,48.28-35.66,54.61-9.76,21.77-12.6,37.93-14.43,53.59.2-13.31.4-25.53.57-34.95.53-30.75,1.2-40.64,1.5-43.69,1.06-1.48,2.3-3.21,3-4.14,6.1-7.86,19.64-17.21,26.4-28.62,9.88-16.67,8.28-36.62,1.35-44-7.24-7.77-20.05,10.59-26.84,28.78s-3.9,35.6-5.8,50.71c-.4,3-.81,14.21-1.2,29.82-2.06-16.79-6.17-28.05-13.78-38.53-9.37-12.9-17.45-28.6-25.17-26.57s-3.56,22.81,2.55,37.4c5.43,13,32.25,26,36.2,36.39-.46,21.16-.88,48-1.18,72.93-2.11-12.89-.66-14-9.32-33.71-5.15-11.74-26.27-26.21-28.78-18.15s1.31,23.3,9.28,34c6.43,8.61,20.7,8.6,24,13.94.77,1.24,3.31,6,4.77,8.77-.35,30.47-.5,57.37-.33,66.54l1.38.09c-.06-2.37.11-17.87.38-38.38,3.46-10.91,26.79-17.29,34-28.64C391.11,234.83,396.53,221,393.3,211.69Z"/><path class="cls-2" d="M371.36,327.45H326.6a5.14,5.14,0,0,1-5-4.12l-3.18-15.67h61.2l-3.18,15.67A5.14,5.14,0,0,1,371.36,327.45Z"/><path class="cls-3" d="M380.86,313.73H317.1a3,3,0,0,1-3-2.66l-1.31-11.59a3,3,0,0,1,3-3.33h66.38a3,3,0,0,1,3,3.33l-1.3,11.59A3,3,0,0,1,380.86,313.73Z"/><path class="cls-3" d="M218,220.32h0c-.52,0-1,0-1.55,0-11,.88-19.83,11.32-20.53,24.17a30,30,0,0,0,.72,8.44,151.4,151.4,0,0,1,3.46,33.78v33.17c0,2.4,1.67,4.35,3.72,4.35H319.51v-104Z"/><path class="cls-4" d="M341.63,246.25c0-14.92-10.76-26.9-23.68-25.87-11,.88-19.82,11.32-20.52,24.17a30.38,30.38,0,0,0,.71,8.44,150.82,150.82,0,0,1,3.47,33.78v33.17c0,2.4,1.67,4.35,3.72,4.35h28.36c2.05,0,3.71-2,3.71-4.35V284.82a137.27,137.27,0,0,1,3.43-31.64A30.23,30.23,0,0,0,341.63,246.25Z"/><rect class="cls-5" x="169.26" y="265.5" width="119.77" height="58.79"/><path class="cls-2" d="M120.75,195H248.17a18.13,18.13,0,0,1,18.13,18.13v62.26a0,0,0,0,1,0,0H102.63a0,0,0,0,1,0,0V213.17A18.13,18.13,0,0,1,120.75,195Z"/><path class="cls-5" d="M133.94,195H252.89a17.87,17.87,0,0,1,17.87,17.87v62.52a0,0,0,0,1,0,0H116.07a0,0,0,0,1,0,0V212.92A17.87,17.87,0,0,1,133.94,195Z"/><path class="cls-1" d="M174.24,263.38H289a3.89,3.89,0,0,1,3.89,3.89v6.26a3.89,3.89,0,0,1-3.89,3.89H174.24a1.16,1.16,0,0,1-1.16-1.16V264.54A1.16,1.16,0,0,1,174.24,263.38Z"/><path class="cls-2" d="M93.56,324.29H320.62a0,0,0,0,1,0,0v.24a2.92,2.92,0,0,1-2.92,2.92H96.48a2.92,2.92,0,0,1-2.92-2.92v-.24A0,0,0,0,1,93.56,324.29Z"/><path class="cls-3" d="M94.68,220.32h0c-.52,0-1,0-1.55,0-11,.88-19.83,11.32-20.53,24.17a30,30,0,0,0,.72,8.44,151.4,151.4,0,0,1,3.46,33.78v33.17c0,2.4,1.67,4.35,3.72,4.35h89.81v-104Z"/><path class="cls-4" d="M192.43,246.25c0-14.92-10.75-26.9-23.67-25.87-11,.88-19.83,11.32-20.52,24.17A30,30,0,0,0,149,253a151.41,151.41,0,0,1,3.47,33.78v33.17c0,2.4,1.66,4.35,3.71,4.35h28.36c2,0,3.71-2,3.71-4.35V284.82a137.82,137.82,0,0,1,3.43-31.64A30.23,30.23,0,0,0,192.43,246.25Z"/><rect class="cls-2" x="66" y="38.53" width="80.29" height="88.15"/><rect class="cls-5" x="67.07" y="38.53" width="86.09" height="88.15"/><rect class="cls-6" x="71.53" y="45.05" width="77.17" height="75.11" transform="translate(192.71 -27.51) rotate(90)"/><path class="cls-5" d="M98.87,110h0a22.89,22.89,0,0,1,0-32.39l22.49-22.49h0a22.91,22.91,0,0,1,0,32.39Z"/><rect class="cls-2" x="166.94" y="98.9" width="47.51" height="53.62"/><rect class="cls-5" x="168.1" y="98.9" width="53.22" height="53.62"/><rect class="cls-6" x="173.39" y="104.59" width="42.65" height="42.24" transform="translate(320.42 -69) rotate(90)"/><rect class="cls-5" x="185.89" y="116.88" width="17.65" height="17.65" rx="5.4" transform="translate(421.29 76.92) rotate(135)"/></g><g id="Shadow"><ellipse id="_Path_" data-name="&lt;Path&gt;" class="cls-5" cx="250" cy="361.29" rx="193.89" ry="11.32"/></g><g id="Chess_Pawn" data-name="Chess Pawn"><path class="cls-7" d="M167.07,337h62.17a0,0,0,0,1,0,0v24.32a0,0,0,0,1,0,0H169.64a2.56,2.56,0,0,1-2.56-2.56V337a0,0,0,0,1,0,0Z"/><polygon class="cls-7" points="229.25 336.97 167.07 336.97 188.33 324.71 222.16 324.71 229.25 336.97"/><path class="cls-8" d="M231.81,337H252a0,0,0,0,1,0,0v24.32a0,0,0,0,1,0,0H229.25a0,0,0,0,1,0,0V339.53A2.56,2.56,0,0,1,231.81,337Z" transform="translate(481.2 698.25) rotate(180)"/><path class="cls-8" d="M231.81,337H252a0,0,0,0,1,0,0v24.32a0,0,0,0,1,0,0H229.25a0,0,0,0,1,0,0V339.53A2.56,2.56,0,0,1,231.81,337Z" transform="translate(481.2 698.25) rotate(180)"/><polygon class="cls-8" points="229.25 336.97 251.95 336.97 230.69 324.71 222.16 324.71 229.25 336.97"/><polygon class="cls-8" points="229.25 336.97 251.95 336.97 230.69 324.71 222.16 324.71 229.25 336.97"/><polygon class="cls-8" points="191.93 148.87 190.49 134.74 185.21 122.54 197.47 126.92 207.75 134.84 212.66 140.57 202.09 151.99 191.93 148.87"/><polygon class="cls-9" points="191.93 148.87 190.49 134.74 185.21 122.54 197.47 126.92 207.75 134.84 212.66 140.57 202.09 151.99 191.93 148.87"/><polygon class="cls-7" points="200.18 138.96 203.76 122.54 238.36 129.75 254.85 151.05 259.01 181.3 255.65 208.05 247.66 226.94 228.26 154.88 200.18 138.96"/><polygon class="cls-10" points="200.74 143.05 207.46 131.66 207.27 123.29 226.71 127.33 240.68 143.88 246.76 166.96 242.91 198.46 234.29 172.38 200.74 143.05"/><polygon class="cls-7" points="188.33 324.71 168.29 309.6 159.63 286.7 167.07 262.38 189.93 243.29 196.18 201.16 190.74 184.05 234.29 146.71 249.34 237.08 251.95 299.05 230.69 324.71 188.33 324.71"/><polygon class="cls-10" points="163.74 297.58 168.29 309.6 172.81 313.01 187.85 319.05 174.43 309.05 163.74 297.58"/><polygon class="cls-10" points="196.18 201.16 194.04 215.6 212.85 210.82 223.68 198.65 224.9 186.54 196.18 201.16"/><polygon class="cls-7" points="229.98 185.81 210.74 206.05 185.44 209.91 170.35 204.05 157.92 207.1 143.63 204.63 136.29 204.97 126.96 200.71 123.18 193.18 126.18 178.83 132.18 173.47 136.89 172.4 168.37 153.34 173.18 145.82 205.79 135.71 234.29 146.71 229.98 185.81"/><polygon class="cls-10" points="124.87 196.56 135.43 198.01 143.63 204.63 136.29 204.97 126.96 200.71 124.87 196.56"/><polygon class="cls-10" points="140.74 185.82 146.4 183.27 154.63 187.6 144.96 188.05 140.74 185.82"/><polygon class="cls-10" points="249.34 237.08 243.06 254.24 238.85 297.38 219.63 320.05 207.74 319.38 188.33 324.71 230.69 324.71 251.95 299.05 249.34 237.08"/><polygon class="cls-7" points="205.47 149.12 210.45 131.67 209.24 117.05 220.66 125.48 230.19 141.35 232.75 149.45 215.2 156.78 205.47 149.12"/><polygon class="cls-10" points="209.53 140.92 216.78 145.76 221.94 140.92 220.36 132.76 211.86 125.67 213.36 132.76 209.53 140.92"/><polygon class="cls-10" points="170.44 150.11 186.76 152.8 198.26 153.55 186.24 157.66 168.37 153.34 170.44 150.11"/></g><g id="Character"><polygon class="cls-11" points="275.07 346.4 282.44 349.03 290.5 332.66 283.13 330.03 275.07 346.4"/><polygon class="cls-10" points="290.5 332.67 286.35 341.11 278.97 338.47 283.13 330.03 290.5 332.67"/><path class="cls-12" d="M282.7,348.16l-8.05-2.88a.7.7,0,0,0-.81.28l-3.8,6a1.15,1.15,0,0,0,.6,1.69c2.92,1,7.18,2.31,10.83,3.62,4.26,1.52,5.5,4.38,10.81,4.38,4.38,0,4.82-2.28,3.54-2.77-5.87-2.22-7.67-4.3-11.55-9.15A3.65,3.65,0,0,0,282.7,348.16Z"/><path class="cls-13" d="M318.18,261.71c.94-23.87-15.82-87.13-15.82-87.13l-27.27,3.67c9.94,28.24,17.69,51.31,21,80.38,3.77,14.37-18.88,77.29-18.88,77.29l12.48,4.47S317.21,286.53,318.18,261.71Z"/><path class="cls-14" d="M318.18,261.71c.94-23.87-15.82-87.13-15.82-87.13l-27.27,3.67c9.94,28.24,17.69,51.31,21,80.38,3.77,14.37-18.88,77.29-18.88,77.29l12.48,4.47S317.21,286.53,318.18,261.71Z"/><path class="cls-10" d="M285,190.91l-3.87,4.64c.41,1.16.75,2.32,1.05,3.48A325.71,325.71,0,0,1,293,238.92a0,0,0,0,1,0,0C293.43,224.6,295,198.91,285,190.91Z"/><polygon class="cls-12" points="291.18 341.24 276.31 335.93 278.02 331.12 293.07 336.24 291.18 341.24"/><path class="cls-13" d="M283.06,349.44h0c1.1.66,3.11,1.71,4.18,1.28a1,1,0,0,0,.63-.73.61.61,0,0,0-.12-.57c-.72-.83-4.22-.37-4.62-.32a.19.19,0,0,0-.16.15A.22.22,0,0,0,283.06,349.44Zm4.37.18.06.05a.24.24,0,0,1,0,.23.71.71,0,0,1-.41.49c-.6.24-1.84-.13-3.37-1C285.12,349.27,287,349.23,287.43,349.62Z"/><path class="cls-13" d="M283.06,349.44a.2.2,0,0,0,.13,0c1-.08,3.37-1.05,3.53-1.93,0-.21,0-.5-.48-.72a1.37,1.37,0,0,0-1.07-.05c-1.22.44-2.12,2.35-2.16,2.43a.21.21,0,0,0,0,.19Zm3.19-2.18c.13.11.11.19.1.22-.09.53-1.74,1.36-2.84,1.58a4.38,4.38,0,0,1,1.78-1.93,1,1,0,0,1,.79,0Z"/><polygon class="cls-11" points="266.29 353.29 274.12 353.29 274.75 335.17 266.92 335.17 266.29 353.29"/><path class="cls-12" d="M274.81,352.39h-9.55a.67.67,0,0,0-.66.53l-1.55,7a1.15,1.15,0,0,0,1.15,1.39c3.07,0,5.31-.23,9.17-.23,2.38,0,9.56.25,12.84.25s3.72-3.25,2.37-3.55c-6-1.32-10.57-3.14-12.5-4.87A1.93,1.93,0,0,0,274.81,352.39Z"/><path class="cls-11" d="M298.49,113.46l7.8,15.18c2.62,5,5.3,10.07,8.12,14.63l1.07,1.63a5.39,5.39,0,0,0,.56.73c.34.33.41.45.81.56a4.21,4.21,0,0,0,2.09-.26,14.38,14.38,0,0,0,3-1.42,42.43,42.43,0,0,0,6.23-4.72c1-.91,2-1.83,3-2.81s2-2,2.87-2.94l4.82,3.35c-.77,1.41-1.54,2.65-2.39,3.93s-1.72,2.52-2.67,3.72a42.59,42.59,0,0,1-6.61,6.86,24.44,24.44,0,0,1-4.49,2.9,14.13,14.13,0,0,1-6.32,1.49,11.68,11.68,0,0,1-7.09-2.56,15.24,15.24,0,0,1-2.41-2.41l-1.44-1.9a154.93,154.93,0,0,1-9.53-15.16c-2.88-5.12-5.57-10.26-8.1-15.59Z"/><path class="cls-12" d="M284.37,114.14c-1.25,7.38,11.43,28.06,11.43,28.06l13.33-14.56s-3.24-11.28-9.66-16.63C293.28,105.86,285.81,105.63,284.37,114.14Z"/><path class="cls-10" d="M300.2,131.23c-2.95-6.63-9.12-10.38-14.79-10.24,2.91,9,10.39,21.21,10.39,21.21l5.95-6.49A30,30,0,0,0,300.2,131.23Z"/><path class="cls-11" d="M332.66,135.72l3.52-5.25,8.26,5.88s-6.79,5.7-11,3.25Z"/><polygon class="cls-11" points="346.01 129.49 352.17 131.91 344.44 136.35 336.18 130.47 346.01 129.49"/><polygon class="cls-10" points="266.92 335.17 274.75 335.17 274.42 344.51 266.59 344.51 266.92 335.17"/><path class="cls-12" d="M249.35,113.05A175.8,175.8,0,0,1,256,138.43c1.13,6,1.94,11.75,2.56,17,1.44,12.24,1.77,21.62,2.34,24.76l41.49-5.58c-.67-45.66-9.5-67-9.5-67a82.29,82.29,0,0,0-10.05-.59q-1.06,0-2.16.06A152.49,152.49,0,0,0,263,109.42c-1.11.21-2.23.44-3.31.69C254.18,111.38,249.35,113.05,249.35,113.05Z"/><path class="cls-10" d="M258.59,122.69l-5.66,2.18c1.21,4.59,2.21,9.14,3,13.56.14.73.27,1.45.4,2.17C259.14,135.29,259.67,129.26,258.59,122.69Z"/><path class="cls-11" d="M262.08,89.33c1.88,5.52,4.39,15.77.93,20.09A17.77,17.77,0,0,0,277.34,113c4.86-.77,4.65-4.21,3.31-6-6.54-.65-7-5.37-6.5-9.93Z"/><polygon class="cls-13" points="273.56 113.67 273.9 114.21 276.86 113.07 275.47 112.17 273.56 113.67"/><polygon class="cls-13" points="279.47 112.78 276.86 113.07 277.01 111.71 278.51 111.48 279.47 112.78"/><path class="cls-6" d="M263.56,107.59a17.4,17.4,0,0,0,11.91,4.58c-1.66,1-1.91,5.13-1.91,5.13s-9-2-12-7.92A11.1,11.1,0,0,1,263.56,107.59Z"/><path class="cls-6" d="M279,106.44a3.45,3.45,0,0,1-2,5.27c3.31.6,4.46,4.81,4.46,4.81s3.42-3.45.81-9.64A23.59,23.59,0,0,0,279,106.44Z"/><path class="cls-10" d="M267,92.5l7.15,4.61a17.27,17.27,0,0,0-.12,3.2c-2.47,0-6.15-2.23-6.75-4.73A8.89,8.89,0,0,1,267,92.5Z"/><path class="cls-11" d="M260.25,80.88c1.51,7.62,2,12.15,6.42,15.58,6.64,5.14,15.65.34,16.45-7.57.72-7.13-1.87-18.4-9.8-20.44A10.6,10.6,0,0,0,260.25,80.88Z"/><path class="cls-12" d="M264.07,88.6a15.15,15.15,0,0,0-1-9.14c.86-1.58,2.86-5.47,2.36-8-3.28-1-10.22,0-10.22,0S250.85,82.88,264.07,88.6Z"/><path class="cls-12" d="M259.51,74.21c3.61.56,18.12-1,21.18-7.44,1.1-2.31-2.72-.17-4.84.22s-15.19-.4-18.72.06C255,67.33,249.49,72.67,259.51,74.21Z"/><path class="cls-12" d="M255.73,67.65c-1.88-5.29,12.63-.65,16.84-3.05,6.36-3.62,8.62-2.32,7.11.17s-2.44,3.31-9.55,3.32S256.84,70.75,255.73,67.65Z"/><path class="cls-11" d="M257.48,88.64a7.39,7.39,0,0,0,5,2.62c2.58.21,3.38-2.21,2.25-4.39-1-2-3.57-4.44-6-3.64A3.32,3.32,0,0,0,257.48,88.64Z"/><path class="cls-13" d="M287.65,176.56S286.88,244,285,266.88c-2,25-7,75.83-7,75.83H263.68s-.3-46.55,1.11-71c1.61-27.84-3.92-91.54-3.92-91.54Z"/><path class="cls-14" d="M287.65,176.56S286.88,244,285,266.88c-2,25-7,75.83-7,75.83H263.68s-.3-46.55,1.11-71c1.61-27.84-3.92-91.54-3.92-91.54Z"/><polygon class="cls-12" points="279.73 343.02 262.85 343.02 262.43 337.64 280.67 337.64 279.73 343.02"/><path class="cls-12" d="M272.2,81.45c.08.63.48,1.09.89,1s.67-.61.59-1.24-.49-1.08-.89-1S272.11,80.83,272.2,81.45Z"/><path class="cls-12" d="M279.27,80.5c.08.63.48,1.09.89,1s.68-.6.59-1.23-.48-1.09-.89-1S279.19,79.87,279.27,80.5Z"/><path class="cls-15" d="M277.06,81.11a22.61,22.61,0,0,0,3.71,5,3.61,3.61,0,0,1-2.91,1Z"/><path class="cls-12" d="M275.45,89.06a6,6,0,0,0,.82-.06.19.19,0,1,0,0-.37,5,5,0,0,1-4.3-1.39.18.18,0,1,0-.28.24A5.2,5.2,0,0,0,275.45,89.06Z"/><path class="cls-12" d="M269.71,79.46a.35.35,0,0,0,.32-.19,3,3,0,0,1,2.19-1.54.37.37,0,0,0,.35-.39.38.38,0,0,0-.4-.35,3.65,3.65,0,0,0-2.78,1.92.37.37,0,0,0,.14.51A.39.39,0,0,0,269.71,79.46Z"/><path class="cls-12" d="M282,77.66a.36.36,0,0,0,.2-.06.38.38,0,0,0,.11-.52,3.7,3.7,0,0,0-2.92-1.71.37.37,0,0,0,0,.74,2.91,2.91,0,0,1,2.3,1.38A.37.37,0,0,0,282,77.66Z"/><path class="cls-13" d="M277.39,353.75a2.41,2.41,0,0,0,1.51-.39,1.15,1.15,0,0,0,.39-1,.61.61,0,0,0-.32-.53c-.87-.45-3.39,1.11-3.68,1.29a.18.18,0,0,0-.08.18.16.16,0,0,0,.14.15A9.22,9.22,0,0,0,277.39,353.75Zm1.17-1.62a.57.57,0,0,1,.24.05.23.23,0,0,1,.12.22.78.78,0,0,1-.26.67c-.42.36-1.45.41-2.78.14A7.59,7.59,0,0,1,278.56,352.13Z"/><path class="cls-13" d="M275.39,353.48l.09,0c.81-.44,2.37-2.16,2.21-3a.61.61,0,0,0-.59-.49,1.05,1.05,0,0,0-.79.24c-.91.74-1.1,3-1.1,3.1a.17.17,0,0,0,.08.17A.19.19,0,0,0,275.39,353.48Zm1.58-3.17h.08c.24,0,.27.14.27.19.1.51-.89,1.81-1.7,2.42a4.44,4.44,0,0,1,.92-2.45A.68.68,0,0,1,277,350.31Z"/><path class="cls-11" d="M255.7,125.11l-2,2.92c-.67,1-1.33,2-2,3-1.28,2.05-2.57,4.1-3.76,6.19a99.11,99.11,0,0,0-6.37,12.64l-.6,1.6-.26.69s0-.08,0-.08-.11.44.13,1.14a19.58,19.58,0,0,0,3.13,5,67.12,67.12,0,0,0,4.75,5.22c.86.85,1.71,1.72,2.6,2.56l2.67,2.47-3.2,4.93a58.88,58.88,0,0,1-13.41-8.85,25.61,25.61,0,0,1-5.79-7.11,12.07,12.07,0,0,1-1.47-6.17,10.45,10.45,0,0,1,.29-2l.09-.35.07-.25.14-.5.57-2a88.51,88.51,0,0,1,6.37-14.78c1.26-2.33,2.57-4.61,4-6.82.7-1.11,1.42-2.21,2.15-3.3s1.47-2.14,2.34-3.3Z"/><path class="cls-12" d="M249.35,113.05c-7,2.5-14.92,21.67-14.92,21.67l17.29,8a49.91,49.91,0,0,0,6.51-16.44C260.25,115.93,257.9,110,249.35,113.05Z"/><path class="cls-11" d="M255,169.24l2,5.26-8.61,1.21s-2.39-6.51.92-8.15l2.78,0A3.55,3.55,0,0,1,255,169.24Z"/><polygon class="cls-11" points="256.02 180.6 249.42 181.6 248.33 175.71 256.94 174.5 256.02 180.6"/></g><g id="Like"><path class="cls-7" d="M367,95.18a22.88,22.88,0,0,0-1.49-6l.92-.37A23.6,23.6,0,0,1,368,95.07Z"/><path class="cls-7" d="M362.89,84.48a23.08,23.08,0,0,0-10.18-8l.38-.92A23.9,23.9,0,0,1,363.7,83.9Z"/><path class="cls-7" d="M344.17,121.7a24,24,0,0,1-23.95-24h1a23,23,0,0,0,22.95,23Z"/><circle class="cls-7" cx="344.17" cy="97.75" r="20.45" transform="translate(31.69 272) rotate(-45)"/><path class="cls-6" d="M335.55,89.69a1.24,1.24,0,0,1,.89-.35l7.91-.22a1.92,1.92,0,0,1,1.39.57l10,10a1.87,1.87,0,0,1,.05,2.64s0,0-.05,0l-7.5,7.5a1.87,1.87,0,0,1-2.64,0l-.05,0-10-10a2,2,0,0,1-.56-1.39l.22-7.91A1.19,1.19,0,0,1,335.55,89.69Zm10.95,17.15,6.2-6.21-5.37-5.34-6.17,6.17Zm-4-12.34a2.16,2.16,0,1,0-2.16,2.15h0a2.14,2.14,0,0,0,2.16-2.09V94.5Z"/><polygon class="cls-7" points="352.7 100.63 346.5 106.84 341.15 101.46 347.32 95.29 352.7 100.63"/><path class="cls-8" d="M346.5,107.47h0a.79.79,0,0,1-.44-.16l-5.38-5.38a.72.72,0,0,1,0-.92l6.2-6.2a.72.72,0,0,1,.92,0l5.38,5.38a.79.79,0,0,1,.16.44.84.84,0,0,1-.16.48l-6.2,6.2A.84.84,0,0,1,346.5,107.47Zm-4.46-6L346.5,106l5.32-5.32-4.49-4.46Z"/><path class="cls-8" d="M356.15,99.21l-10-10a2.6,2.6,0,0,0-1.84-.76l-7.94.22a1.78,1.78,0,0,0-.76.19l-2.41-2.4a.63.63,0,0,0-.88.89l2.4,2.4a1.85,1.85,0,0,0-.19.76l-.22,7.94a2.55,2.55,0,0,0,.76,1.84l10,10a2.49,2.49,0,0,0,1.8.76,2.38,2.38,0,0,0,1.77-.76l7.5-7.49h0a2.5,2.5,0,0,0,0-3.54Zm-.88,2.69-7.5,7.5a1.26,1.26,0,0,1-1.79,0h0l-10-10a1.3,1.3,0,0,1-.38-.92l.22-7.65L338,93a3,3,0,0,0-.41,1.46,2.79,2.79,0,1,0,2.82-2.76h-.07a3,3,0,0,0-1.45.41L336.73,90l7.65-.22h0a1.43,1.43,0,0,1,.92.38l10,10a1.26,1.26,0,0,1,0,1.79ZM340.36,93a1.51,1.51,0,0,1,1.52,1.49A1.53,1.53,0,0,1,340.36,96a1.51,1.51,0,0,1-1.48-1.51A1.48,1.48,0,0,1,340.36,93Z"/></g></g></svg>